<svg width="128" height="128" viewBox="0 0 128 128" fill="none" xmlns="http://www.w3.org/2000/svg">
<path d="M36.0156 75.3984C35.9948 75.3984 35.8594 75.263 35.6094 74.9922C35.1771 74.5234 34.8438 73.8307 34.6094 72.9141C34.3802 71.9974 34.1953 70.6354 34.0547 68.8281L33.9609 67.7031L33.9453 68.9766C33.9453 69.4766 33.9688 70.0417 34.0156 70.6719C34.0729 71.4583 34.1641 72.1927 34.2891 72.875L34.0547 72.4688C33.7995 72.0208 33.6198 70.8698 33.5156 69.0156C33.474 68.2292 33.4349 67.8359 33.3984 67.8359L33.3906 67.8438C33.3594 67.9375 33.3281 67.9844 33.2969 67.9844C33.2292 67.9844 33.1849 67.6693 33.1641 67.0391V66.9219C33.1641 66.5365 33.1849 65.9453 33.2266 65.1484C33.3255 63.0078 33.4453 61.4219 33.5859 60.3906C33.6536 59.9062 33.6875 59.5495 33.6875 59.3203C33.6875 59.2214 33.6797 59.1719 33.6641 59.1719C33.6068 59.1719 33.4323 60.2917 33.1406 62.5312C32.9115 64.2812 32.7734 65.1979 32.7266 65.2812C32.7005 65.2812 32.6875 65.1719 32.6875 64.9531C32.6875 64.4844 32.7318 63.7161 32.8203 62.6484C32.9401 61.1432 33.1589 59.4297 33.4766 57.5078C33.737 55.8828 34.4115 52.4193 35.5 47.1172L36 44.6484C36.0938 44.1797 36.1458 43.8932 36.1562 43.7891C36.1562 43.7474 36.1536 43.7266 36.1484 43.7266C36.1328 43.7266 36.112 43.75 36.0859 43.7969C35.987 43.9688 35.3125 45.6198 34.0625 48.75C31.5 55.1667 29.7214 59.4141 28.7266 61.4922C28.1745 62.6432 27.7109 63.4714 27.3359 63.9766C26.9661 64.4818 26.625 64.7917 26.3125 64.9062C26.0781 65 25.8516 65.0469 25.6328 65.0469C25.4609 65.0469 25.2917 65.0156 25.125 64.9531C24.7552 64.8125 24.4661 64.5312 24.2578 64.1094C24.0078 63.6354 23.8828 62.4062 23.8828 60.4219C23.8828 57.6875 24.1406 53.0885 24.6562 46.625C24.8177 44.6094 24.8984 43.4036 24.8984 43.0078V42.9453C24.8568 42.9453 24.7005 43.4089 24.4297 44.3359C24.2161 45.0495 23.3646 47.776 21.875 52.5156C21.0677 55.0521 20.2292 57.5339 19.3594 59.9609C18.4948 62.3828 17.7865 64.224 17.2344 65.4844C16.724 66.6198 16.2578 67.5755 15.8359 68.3516C15.4141 69.1276 15.1484 69.5182 15.0391 69.5234C14.9714 69.5234 14.763 69.7031 14.4141 70.0625C14.1641 70.3281 14.026 70.4609 14 70.4609V70.4531C14 70.4219 14.1641 70.1979 14.4922 69.7812C14.7526 69.4479 14.9818 69.0938 15.1797 68.7188C15.3776 68.3385 15.4766 68.0911 15.4766 67.9766C15.4766 67.9349 15.4661 67.9141 15.4453 67.9141C15.4089 67.9141 15.3438 67.974 15.25 68.0938C15.2083 68.151 15.1823 68.1797 15.1719 68.1797C15.1615 68.1797 15.1562 68.1719 15.1562 68.1562C15.1562 68.0781 15.4401 67.4193 16.0078 66.1797C16.1901 65.7891 16.3307 65.4583 16.4297 65.1875C16.5286 64.9115 16.5781 64.7422 16.5781 64.6797L16.5703 64.6484C16.5286 64.6484 16.4089 64.888 16.2109 65.3672C15.8724 66.1536 15.4609 67.013 14.9766 67.9453C14.7005 68.4661 14.5443 68.7266 14.5078 68.7266V68.7188C14.5078 68.651 14.6849 68.2578 15.0391 67.5391C15.3932 66.8203 15.7318 66.0417 16.0547 65.2031C16.3828 64.3646 16.6094 63.6979 16.7344 63.2031C16.8021 62.9219 16.9167 62.5156 17.0781 61.9844C17.1823 61.625 17.2344 61.3776 17.2344 61.2422C17.2344 61.1901 17.2266 61.1562 17.2109 61.1406C17.1224 61.0729 17.0781 60.9922 17.0781 60.8984C17.0781 60.8516 17.0911 60.8281 17.1172 60.8281C17.1328 60.8281 17.1536 60.8359 17.1797 60.8516C17.2057 60.8672 17.2266 60.875 17.2422 60.875C17.263 60.875 17.2734 60.862 17.2734 60.8359C17.2734 60.8151 17.263 60.7812 17.2422 60.7344C17.2266 60.6875 17.2188 60.6458 17.2188 60.6094C17.2188 60.5104 17.2604 60.4141 17.3438 60.3203C17.4323 60.2214 17.4766 60.1354 17.4766 60.0625C17.4766 60.0469 17.474 60.0339 17.4688 60.0234C17.4635 60.013 17.4609 59.9948 17.4609 59.9688C17.4609 59.8333 17.5182 59.5599 17.6328 59.1484C17.9818 57.862 18.1797 56.9635 18.2266 56.4531C18.237 56.125 18.8021 54.2135 19.9219 50.7188C20.5469 48.75 20.8958 47.6432 20.9688 47.3984L22.1484 43.5703C22.487 42.4974 22.888 41.1849 23.3516 39.6328L23.8047 38.0547C24.0599 37.1797 24.4688 36.0469 25.0312 34.6562C25.2708 34.0625 25.4531 33.6432 25.5781 33.3984C25.9115 32.7943 26.3047 32.4922 26.7578 32.4922C26.888 32.4922 27.0208 32.5156 27.1562 32.5625C27.4375 32.6615 27.6484 32.862 27.7891 33.1641C27.9036 33.3724 27.9609 33.6536 27.9609 34.0078C27.9609 34.2578 27.9349 34.8385 27.8828 35.75C27.7943 37.1198 27.638 39.2396 27.4141 42.1094C26.8464 49.0625 26.5234 53.7865 26.4453 56.2812C26.4089 57.474 26.3724 58.4297 26.3359 59.1484C26.3203 59.3776 26.3125 59.5729 26.3125 59.7344C26.3125 60.1562 26.3568 60.3672 26.4453 60.3672C26.7057 60.3672 28.7943 55.4245 32.7109 45.5391C33.5547 43.4141 34.0391 42.2135 34.1641 41.9375C35.2526 39.4844 35.9792 37.974 36.3438 37.4062C36.6771 36.8958 37.0208 36.5755 37.375 36.4453C37.5052 36.3984 37.6797 36.375 37.8984 36.375C38.1172 36.375 38.2812 36.3958 38.3906 36.4375C38.5052 36.474 38.6172 36.5547 38.7266 36.6797C38.9661 36.9297 39.125 37.1953 39.2031 37.4766C39.2865 37.7578 39.3281 38.1172 39.3281 38.5547C39.3281 39.0547 39.3151 39.5104 39.2891 39.9219C39.2526 40.4271 39.0911 41.474 38.8047 43.0625C38.5443 44.5365 38.1745 46.4714 37.6953 48.8672C37.2161 51.2578 36.8438 53.0417 36.5781 54.2188C36.1458 56.1667 35.7188 58.724 35.2969 61.8906C34.875 65.0521 34.6198 67.6042 34.5312 69.5469L34.5234 69.9297C34.5234 70.8672 34.625 71.7839 34.8281 72.6797C35.0521 73.7005 35.3542 74.4635 35.7344 74.9688C35.9271 75.224 36.0234 75.3646 36.0234 75.3906L36.0156 75.3984ZM15.0547 69.4375C15.0807 69.4375 15.1432 69.3281 15.2422 69.1094C15.3047 68.9948 15.3359 68.9271 15.3359 68.9062L15.3281 68.8984C15.3177 68.8984 15.276 68.9479 15.2031 69.0469C15.0885 69.1979 15.0312 69.3073 15.0312 69.375C15.0312 69.4167 15.0391 69.4375 15.0547 69.4375ZM24.6484 63.8125C24.6589 63.8073 24.6641 63.7943 24.6641 63.7734C24.6641 63.7474 24.6536 63.7083 24.6328 63.6562C24.612 63.599 24.5911 63.5625 24.5703 63.5469C24.5547 63.526 24.5391 63.5156 24.5234 63.5156C24.5026 63.5156 24.4922 63.5365 24.4922 63.5781C24.4922 63.6146 24.5052 63.6562 24.5312 63.7031C24.5781 63.776 24.6146 63.8125 24.6406 63.8125H24.6484ZM24.4141 63.3125C24.4453 63.3125 24.4609 63.2578 24.4609 63.1484C24.4609 63.0391 24.4453 62.9844 24.4141 62.9844C24.3932 62.9844 24.3828 63.0391 24.3828 63.1484C24.3828 63.2578 24.3932 63.3125 24.4141 63.3125ZM24.3047 62.6406C24.3359 62.6406 24.3516 62.5807 24.3516 62.4609C24.3516 62.3932 24.3438 62.3307 24.3281 62.2734C24.3177 62.2422 24.3099 62.2266 24.3047 62.2266C24.2891 62.2266 24.2786 62.2891 24.2734 62.4141C24.2734 62.5651 24.2839 62.6406 24.3047 62.6406ZM24.2188 61.3047C24.2656 61.3047 24.3047 61.2604 24.3359 61.1719C24.3568 61.1146 24.3672 61.0547 24.3672 60.9922C24.3672 60.8828 24.3385 60.8281 24.2812 60.8281C24.2396 60.8281 24.2031 60.8698 24.1719 60.9531C24.151 61.0104 24.1406 61.0703 24.1406 61.1328C24.1406 61.2474 24.1667 61.3047 24.2188 61.3047ZM24.3125 59.9609C24.3385 59.9609 24.3516 59.8542 24.3516 59.6406C24.3516 59.3958 24.3385 59.2734 24.3125 59.2734C24.2969 59.2734 24.2891 59.3828 24.2891 59.6016C24.2891 59.8411 24.2969 59.9609 24.3125 59.9609ZM29.2578 59.625C29.2734 59.625 29.2943 59.6172 29.3203 59.6016C29.3464 59.5807 29.3698 59.5547 29.3906 59.5234C29.4167 59.487 29.4297 59.4531 29.4297 59.4219C29.4297 59.3802 29.4115 59.3594 29.375 59.3594C29.3594 59.3594 29.3359 59.3672 29.3047 59.3828C29.2786 59.3984 29.2552 59.4245 29.2344 59.4609C29.2135 59.4974 29.2031 59.5312 29.2031 59.5625C29.2031 59.6042 29.2214 59.625 29.2578 59.625ZM29.4844 59.0938C29.526 59.0938 29.6198 58.9245 29.7656 58.5859C29.9115 58.2422 29.9844 58.0391 29.9844 57.9766C29.9844 57.9661 29.9818 57.9609 29.9766 57.9609C29.9297 57.9609 29.8281 58.1458 29.6719 58.5156C29.5417 58.8177 29.4766 59.0026 29.4766 59.0703C29.4766 59.0859 29.4792 59.0938 29.4844 59.0938ZM24.3281 58.125C24.3646 58.125 24.401 57.8229 24.4375 57.2188C24.4583 56.8021 24.4688 56.3906 24.4688 55.9844C24.4688 55.526 24.4609 55.2969 24.4453 55.2969C24.4089 55.2969 24.3698 55.8516 24.3281 56.9609C24.3125 57.3516 24.3047 57.6432 24.3047 57.8359C24.3047 58.0286 24.3125 58.125 24.3281 58.125ZM30.375 57.0703C30.4062 57.0703 30.612 56.6146 30.9922 55.7031C31.3464 54.8802 31.5234 54.4141 31.5234 54.3047V54.2969C31.4818 54.2969 31.3464 54.5729 31.1172 55.125L30.4141 56.8047C30.362 56.9245 30.3359 57.0026 30.3359 57.0391C30.3359 57.0599 30.349 57.0703 30.375 57.0703ZM24.5391 54.7969C24.5443 54.7969 24.5495 54.776 24.5547 54.7344C24.5703 54.6615 24.5781 54.5781 24.5781 54.4844C24.5781 54.3906 24.5703 54.3073 24.5547 54.2344C24.5495 54.1927 24.5443 54.1719 24.5391 54.1719C24.5182 54.1719 24.5078 54.276 24.5078 54.4844C24.5078 54.6927 24.5182 54.7969 24.5391 54.7969ZM31.5859 54.1484C31.612 54.1484 31.6615 54.0703 31.7344 53.9141C31.8385 53.7005 31.8906 53.5521 31.8906 53.4688C31.8906 53.4427 31.8854 53.4297 31.875 53.4297C31.849 53.4297 31.7995 53.513 31.7266 53.6797C31.6224 53.9245 31.5703 54.0755 31.5703 54.1328C31.5703 54.1432 31.5755 54.1484 31.5859 54.1484ZM32.0469 53.0703C32.0677 53.0703 32.0938 53.0365 32.125 52.9688C32.1875 52.8542 32.224 52.7396 32.2344 52.625C32.2344 52.6042 32.2292 52.5938 32.2188 52.5938C32.1979 52.5938 32.1693 52.6224 32.1328 52.6797C32.0964 52.7318 32.0677 52.7891 32.0469 52.8516C32.0312 52.9141 32.0234 52.9714 32.0234 53.0234C32.0286 53.0547 32.0365 53.0703 32.0469 53.0703ZM16.8594 62.0156C16.8385 62.0156 16.8281 61.9818 16.8281 61.9141C16.8281 61.8411 16.8385 61.7786 16.8594 61.7266C16.8958 61.6432 16.9479 61.6016 17.0156 61.6016C17.0365 61.6016 17.0469 61.6172 17.0469 61.6484C17.0469 61.7057 17.013 61.7917 16.9453 61.9062C16.9036 61.9792 16.875 62.0156 16.8594 62.0156ZM59.3672 75.1641C59.1484 75.1641 58.8932 75.0859 58.6016 74.9297C58.263 74.763 58.0026 74.5104 57.8203 74.1719C57.7318 74.0208 57.6693 73.8776 57.6328 73.7422C57.5703 73.5339 57.5391 72.9635 57.5391 72.0312C57.5391 71.3906 57.5703 70.7786 57.6328 70.1953C57.6953 69.6068 57.8255 68.737 58.0234 67.5859C58.4974 64.8255 59.1016 61.7708 59.8359 58.4219C60.0182 57.5365 60.1094 57.0208 60.1094 56.875V56.8516C60.0521 56.8203 59.3802 56.8047 58.0938 56.8047C56.6354 56.8047 55.5885 56.8229 54.9531 56.8594C54.3438 56.8958 53.75 56.9583 53.1719 57.0469C52.1094 57.2083 51.3672 57.3438 50.9453 57.4531C50.5234 57.5573 50.2786 57.6745 50.2109 57.8047C50.0495 58.0703 49.763 58.8854 49.3516 60.25C49.1849 60.7969 49.0651 61.2448 48.9922 61.5938C48.8828 62.1615 48.8281 62.6797 48.8281 63.1484C48.8281 63.5391 48.8672 63.8932 48.9453 64.2109C49.0286 64.5651 49.0755 64.8281 49.0859 65C49.112 65.224 49.1901 65.4505 49.3203 65.6797C49.4089 65.8151 49.4531 65.8958 49.4531 65.9219V65.9297C49.3594 65.9297 49.1276 65.6016 48.7578 64.9453C48.5599 64.5755 48.4427 64.3906 48.4062 64.3906C48.3958 64.3906 48.3906 64.4115 48.3906 64.4531L48.3984 64.5703C48.4089 64.6693 48.4141 64.7448 48.4141 64.7969C48.4141 64.8646 48.4062 64.8984 48.3906 64.8984C48.3333 64.8984 48.25 64.651 48.1406 64.1562C48.0781 63.8333 48.0469 63.4635 48.0469 63.0469C48.0469 62.875 48.0521 62.6953 48.0625 62.5078C48.0729 62.2943 48.0781 62.1224 48.0781 61.9922C48.0781 61.7891 48.0651 61.6875 48.0391 61.6875L48.0234 61.6953C47.9557 61.8151 47.9193 61.9922 47.9141 62.2266C47.9141 62.4557 47.9141 62.5964 47.9141 62.6484C47.9141 63.638 47.9896 64.3646 48.1406 64.8281C48.2552 65.1979 48.3125 65.4089 48.3125 65.4609V65.4688C48.2917 65.4688 48.2005 65.2734 48.0391 64.8828C47.8203 64.2682 47.7109 63.4766 47.7109 62.5078C47.7109 62.0703 47.7396 61.6432 47.7969 61.2266C47.8333 60.9557 47.8698 60.6901 47.9062 60.4297C47.9427 60.1641 47.9688 59.9661 47.9844 59.8359C48 59.7005 48.0234 59.5573 48.0547 59.4062C48.0859 59.2552 48.1172 59.125 48.1484 59.0156C48.1849 58.9062 48.2031 58.7969 48.2031 58.6875C48.2031 58.5781 48.1849 58.474 48.1484 58.375L48.125 58.3125C48.1042 58.25 48.0807 58.2057 48.0547 58.1797C48.0286 58.1484 47.9766 58.1328 47.8984 58.1328C47.7578 58.138 47.3984 58.2161 46.8203 58.3672C46.5547 58.4245 46.1302 58.5339 45.5469 58.6953C44.8594 58.8828 44.0599 59.1172 43.1484 59.3984C43.1068 59.4089 43.0729 59.4141 43.0469 59.4141C43.0104 59.4141 42.9922 59.4036 42.9922 59.3828L43.0078 59.3281C43.0078 59.3177 42.9922 59.3125 42.9609 59.3125C42.7839 59.3125 42.3151 59.4479 41.5547 59.7188C41.1536 59.8594 40.3906 60.1589 39.2656 60.6172C38.9583 60.7422 38.7292 60.8307 38.5781 60.8828C38.2292 61.013 38.0208 61.1016 37.9531 61.1484C37.7917 61.2474 37.6068 61.3229 37.3984 61.375C37.3359 61.3958 37.2917 61.4062 37.2656 61.4062C37.2448 61.4062 37.2344 61.401 37.2344 61.3906C37.2344 61.2969 38.0469 60.8958 39.6719 60.1875C41.224 59.5104 42.4661 59.0156 43.3984 58.7031C43.763 58.5885 43.9453 58.5104 43.9453 58.4688C43.9453 58.4635 43.9427 58.4609 43.9375 58.4609C43.9375 58.4609 43.9323 58.4609 43.9219 58.4609C43.8177 58.4609 43.4766 58.5521 42.8984 58.7344C42.263 58.9375 41.5208 59.1953 40.6719 59.5078C39.8906 59.7995 39.4323 59.9453 39.2969 59.9453C39.2917 59.9453 39.2839 59.9427 39.2734 59.9375C39.2682 59.9323 39.2656 59.9245 39.2656 59.9141C39.2656 59.8932 39.2917 59.8828 39.3438 59.8828C39.4219 59.8828 39.5312 59.8125 39.6719 59.6719C39.8385 59.5156 40.4948 59.2109 41.6406 58.7578C42.7812 58.2943 43.3516 58.0182 43.3516 57.9297L43.3438 57.9062C43.3438 57.724 44.5677 57.2578 47.0156 56.5078C47.4479 56.3776 47.8203 56.263 48.1328 56.1641C48.4505 56.0651 48.6406 56.0052 48.7031 55.9844C48.7708 55.9635 48.8047 55.9375 48.8047 55.9062C48.8047 55.8958 48.7995 55.888 48.7891 55.8828C48.7839 55.8776 48.776 55.875 48.7656 55.875C48.5938 55.875 47.9922 55.9922 46.9609 56.2266C45.9089 56.4661 45.3099 56.5859 45.1641 56.5859H45.1406C45.1406 56.5234 45.6849 56.3229 46.7734 55.9844C47.2318 55.8438 47.6797 55.7161 48.1172 55.6016C48.4141 55.5286 48.6328 55.4661 48.7734 55.4141C48.9141 55.362 49.013 55.2969 49.0703 55.2188C49.1328 55.1354 49.1979 55.013 49.2656 54.8516C49.3802 54.5911 49.4375 54.4062 49.4375 54.2969L49.4297 54.2344C49.4297 54.0521 49.7839 53.3203 50.4922 52.0391C51.4401 50.3255 52.8958 48.2057 54.8594 45.6797C56.1927 43.9661 57.4818 42.4323 58.7266 41.0781C59.0182 40.7552 59.2214 40.5208 59.3359 40.375C59.5911 40.0625 60.1927 39.5208 61.1406 38.75C61.5469 38.4167 61.9089 38.1354 62.2266 37.9062C63.1276 37.2917 63.8776 36.9844 64.4766 36.9844C64.9297 36.9844 65.2943 37.2083 65.5703 37.6562C65.7943 38.0208 65.9089 38.4818 65.9141 39.0391C65.8516 40.7786 65.1745 44.7474 63.8828 50.9453C63.3776 53.3516 63.1198 54.625 63.1094 54.7656C63.1198 54.849 63.4922 55.0651 64.2266 55.4141C66.612 56.5547 67.8047 58.3906 67.8047 60.9219C67.8047 61.9375 67.638 62.9401 67.3047 63.9297C67.013 64.7839 66.4922 65.9531 65.7422 67.4375C64.6901 69.5208 63.6615 71.237 62.6562 72.5859C61.6562 73.9349 60.8125 74.737 60.125 74.9922C59.8125 75.1068 59.5599 75.1641 59.3672 75.1641ZM58.9453 74.8438C58.9714 74.8385 58.9844 74.8307 58.9844 74.8203C58.9844 74.7943 58.9089 74.7422 58.7578 74.6641C58.6589 74.612 58.5547 74.5339 58.4453 74.4297C58.3411 74.3255 58.2604 74.2188 58.2031 74.1094C58.0781 73.8906 57.9948 73.7812 57.9531 73.7812C57.9427 73.7812 57.9375 73.7891 57.9375 73.8047C57.9375 73.8411 57.974 73.9323 58.0469 74.0781C58.1406 74.2552 58.2812 74.4245 58.4688 74.5859C58.6615 74.7474 58.8203 74.8333 58.9453 74.8438ZM57.8516 73.6094C57.8568 73.6094 57.862 73.474 57.8672 73.2031C57.8724 72.9323 57.875 72.6068 57.875 72.2266C57.875 71.8516 57.8828 71.4766 57.8984 71.1016C57.9141 70.7266 57.9323 70.4557 57.9531 70.2891C57.974 70.1224 57.9844 70.0078 57.9844 69.9453C57.9844 69.9036 57.9818 69.8828 57.9766 69.8828C57.9661 69.8828 57.9453 69.9219 57.9141 70C57.862 70.151 57.8203 70.4167 57.7891 70.7969C57.7578 71.1719 57.7396 71.4948 57.7344 71.7656C57.7292 72.0365 57.7266 72.2214 57.7266 72.3203C57.7266 73.1797 57.7682 73.6094 57.8516 73.6094ZM60.1094 71.6797C60.1771 71.6797 60.276 71.6172 60.4062 71.4922C60.5156 71.388 60.625 71.2604 60.7344 71.1094C61.4375 70.151 62.2292 68.8438 63.1094 67.1875C63.9896 65.526 64.625 64.1432 65.0156 63.0391C65.1771 62.5911 65.2708 62.2656 65.2969 62.0625C65.3281 61.8594 65.3438 61.6562 65.3438 61.4531C65.3438 60.3542 65.1536 59.5052 64.7734 58.9062C64.3932 58.3021 63.7422 57.8281 62.8203 57.4844C62.7161 57.4479 62.6458 57.4297 62.6094 57.4297H62.5938C62.5312 57.5286 62.2344 58.8724 61.7031 61.4609C61.2083 63.8516 60.8099 65.8906 60.5078 67.5781C60.1484 69.599 59.9688 70.8385 59.9688 71.2969C59.9688 71.5521 60.0156 71.6797 60.1094 71.6797ZM58.0938 68.9844C58.1302 68.9375 58.1849 68.737 58.2578 68.3828C58.2839 68.2266 58.2969 68.099 58.2969 68C58.2969 67.9583 58.2917 67.9375 58.2812 67.9375C58.2604 67.9375 58.2292 68.013 58.1875 68.1641C58.1094 68.4557 58.0703 68.7083 58.0703 68.9219C58.0703 68.9635 58.0755 68.9844 58.0859 68.9844H58.0938ZM58.3125 67.7344C58.3438 67.7344 58.362 67.7005 58.3672 67.6328C58.3672 67.5964 58.3594 67.5599 58.3438 67.5234C58.3281 67.4818 58.3151 67.4609 58.3047 67.4609C58.2891 67.4609 58.2786 67.5 58.2734 67.5781C58.2734 67.6823 58.2865 67.7344 58.3125 67.7344ZM48.9922 65.0234C49.0078 65.0234 49.0182 65.0052 49.0234 64.9688C49.0234 64.9219 48.9948 64.8542 48.9375 64.7656C48.8854 64.6719 48.8516 64.625 48.8359 64.625C48.8255 64.625 48.8203 64.6302 48.8203 64.6406C48.8203 64.6771 48.8438 64.7578 48.8906 64.8828C48.9271 64.9766 48.9609 65.0234 48.9922 65.0234ZM59.7734 60.7656C59.8099 60.7656 59.8281 60.7318 59.8281 60.6641C59.8281 60.6224 59.8203 60.5833 59.8047 60.5469C59.7891 60.5052 59.776 60.4844 59.7656 60.4844C59.75 60.4844 59.7396 60.5234 59.7344 60.6016C59.7344 60.7109 59.7474 60.7656 59.7734 60.7656ZM59.8906 60.1562C59.9219 60.1562 59.9375 60.1016 59.9375 59.9922C59.9375 59.8828 59.9219 59.8281 59.8906 59.8281C59.8698 59.8281 59.8594 59.8828 59.8594 59.9922C59.8594 60.1016 59.8698 60.1562 59.8906 60.1562ZM60 59.6406C60.0312 59.6406 60.0495 59.6042 60.0547 59.5312C60.0547 59.4948 60.0469 59.4583 60.0312 59.4219C60.0156 59.3802 60.0026 59.3594 59.9922 59.3594C59.9766 59.3594 59.9661 59.3984 59.9609 59.4766C59.9609 59.5859 59.974 59.6406 60 59.6406ZM60.3203 58.1406C60.3516 58.1406 60.401 57.9948 60.4688 57.7031C60.5521 57.375 60.5938 57.1484 60.5938 57.0234C60.5938 57.0026 60.5911 56.9896 60.5859 56.9844L60.5781 56.9766C60.5365 56.9766 60.4792 57.112 60.4062 57.3828C60.3385 57.6484 60.3047 57.8646 60.3047 58.0312C60.3047 58.1042 60.3099 58.1406 60.3203 58.1406ZM51.8359 54.7891C51.8672 54.7891 51.901 54.7839 51.9375 54.7734C52.1406 54.7266 52.6745 54.6406 53.5391 54.5156C54.4401 54.3854 55.875 54.3203 57.8438 54.3203C59.776 54.3099 60.7422 54.3021 60.7422 54.2969C60.7422 54.2656 61.0417 52.8255 61.6406 49.9766C62.8281 44.263 63.4219 41.0052 63.4219 40.2031C63.4219 40.1458 63.4193 40.1016 63.4141 40.0703L63.3984 40.0625C63.237 40.0625 62.4375 40.7943 61 42.2578C60.3698 42.8984 59.7995 43.5052 59.2891 44.0781C56.7839 46.9323 54.6589 49.7995 52.9141 52.6797C52.7891 52.8932 52.6484 53.1224 52.4922 53.3672C52.3411 53.6068 52.2135 53.8099 52.1094 53.9766C51.8698 54.3411 51.75 54.5833 51.75 54.7031C51.75 54.7604 51.7786 54.7891 51.8359 54.7891ZM41.7891 59.8672C41.7682 59.8672 41.7578 59.862 41.7578 59.8516C41.7578 59.8359 41.7839 59.8125 41.8359 59.7812C41.888 59.7448 41.9453 59.7161 42.0078 59.6953C42.0755 59.6745 42.1328 59.6641 42.1797 59.6641C42.2266 59.6641 42.25 59.6719 42.25 59.6875C42.25 59.7083 42.2083 59.737 42.125 59.7734C41.9583 59.8359 41.8464 59.8672 41.7891 59.8672ZM47.8438 59.1953C47.8385 59.1953 47.8359 59.1901 47.8359 59.1797C47.8359 59.1589 47.8464 59.1198 47.8672 59.0625C47.888 59.0052 47.9089 58.9661 47.9297 58.9453C47.9557 58.9245 47.974 58.9141 47.9844 58.9141C48.0104 58.9141 48.0234 58.9323 48.0234 58.9688C48.0234 59.0104 47.9922 59.0625 47.9297 59.125C47.888 59.1719 47.8594 59.1953 47.8438 59.1953ZM83.8125 74.0703C83.2448 74.0703 82.7604 74.0156 82.3594 73.9062C81.8021 73.7604 81.3958 73.5391 81.1406 73.2422C80.8854 72.9505 80.7578 72.5599 80.7578 72.0703C80.7578 71.2734 81.2031 70.4297 82.0938 69.5391C82.9896 68.6484 84.3724 67.6719 86.2422 66.6094C87.0026 66.1771 87.737 65.7812 88.4453 65.4219C89.1589 65.0625 89.7396 64.7969 90.1875 64.625C90.2708 64.5885 90.3281 64.5703 90.3594 64.5703C90.3802 64.5703 90.3906 64.5781 90.3906 64.5938C90.3906 64.6042 90.3802 64.6224 90.3594 64.6484C90.3438 64.6745 90.3359 64.6953 90.3359 64.7109C90.3359 64.7214 90.3464 64.7266 90.3672 64.7266C90.3932 64.7266 90.4375 64.7135 90.5 64.6875C91.0781 64.4427 92.099 64.0964 93.5625 63.6484C94.75 63.2891 95.6849 63.0964 96.3672 63.0703L97.125 63.0547C97.5573 63.0547 97.8958 63.0885 98.1406 63.1562C98.2188 63.1771 98.2578 63.1927 98.2578 63.2031C98.2578 63.2448 97.9557 63.2656 97.3516 63.2656C95.2057 63.2656 92.4505 64.1146 89.0859 65.8125C88.8151 65.9479 88.6797 66.0312 88.6797 66.0625H88.6953C88.7734 66.0625 89.0026 65.9688 89.3828 65.7812C90.4245 65.2708 91.6693 64.776 93.1172 64.2969C94.1849 63.9479 94.8516 63.7734 95.1172 63.7734C95.1849 63.7734 95.2188 63.7891 95.2188 63.8203C95.2188 63.8568 95.1823 63.8906 95.1094 63.9219C95.0573 63.9427 95.0026 63.9531 94.9453 63.9531C94.8203 63.9531 94.7135 63.9974 94.625 64.0859C94.5 64.1849 93.9948 64.3854 93.1094 64.6875C92.3229 64.9635 91.6224 65.2448 91.0078 65.5312C90.3984 65.8177 90.0938 66.0052 90.0938 66.0938C90.0938 66.1354 90.112 66.1562 90.1484 66.1562C90.1901 66.1562 90.2448 66.138 90.3125 66.1016C90.3802 66.0651 90.4297 66.0417 90.4609 66.0312C90.4922 66.0208 90.513 66.0156 90.5234 66.0156C90.5391 66.0156 90.5469 66.0208 90.5469 66.0312C90.5469 66.0677 90.4193 66.1536 90.1641 66.2891C88.0599 67.3984 86.3047 68.5208 84.8984 69.6562C83.8464 70.5052 83.25 71.0521 83.1094 71.2969L83.0938 71.3438C83.0938 71.349 83.099 71.3516 83.1094 71.3516C83.151 71.3516 83.3073 71.2292 83.5781 70.9844C84.651 69.9635 86.0182 69.0208 87.6797 68.1562C88.1953 67.8802 88.4766 67.7422 88.5234 67.7422H88.5312C88.5312 67.7734 87.9167 68.2083 86.6875 69.0469C86.2083 69.3698 85.7396 69.7083 85.2812 70.0625C84.8281 70.4115 84.4896 70.6901 84.2656 70.8984L83.5156 71.6172L84.5859 71.5625C85.8464 71.5052 87.8333 71.138 90.5469 70.4609C93.8542 69.6432 96.8021 68.763 99.3906 67.8203C101.979 66.8776 104.089 65.9271 105.719 64.9688C107.349 64.0052 108.385 63.0859 108.828 62.2109C108.984 61.9193 109.062 61.6615 109.062 61.4375C109.062 61.1198 108.904 60.8724 108.586 60.6953C107.93 60.3307 106.406 60.1484 104.016 60.1484C102.802 60.1484 101.398 60.2188 99.8047 60.3594C97.6849 60.5469 94.7474 60.901 90.9922 61.4219C86.3047 62.0729 82.8438 62.5156 80.6094 62.75C78.375 62.9792 76.5365 63.0938 75.0938 63.0938H74.7188C73.6823 63.0938 72.8776 63.0521 72.3047 62.9688C71.7005 62.8854 71.1901 62.7318 70.7734 62.5078C70.5026 62.362 70.2474 62.1667 70.0078 61.9219C69.7682 61.6771 69.6042 61.4401 69.5156 61.2109C69.4323 60.9818 69.3906 60.7318 69.3906 60.4609C69.3906 59.7109 69.6562 58.9453 70.1875 58.1641C71.1562 56.7995 72.974 55.099 75.6406 53.0625C78.3125 51.026 81.4453 48.9141 85.0391 46.7266C88.638 44.5339 92.3099 42.5234 96.0547 40.6953C97.9922 39.7578 99.5651 39.0365 100.773 38.5312C101.982 38.0208 103.297 37.5339 104.719 37.0703C106.484 36.4818 107.932 36.1875 109.062 36.1875C110.552 36.1875 111.492 36.7005 111.883 37.7266C112.018 38.0911 112.086 38.4948 112.086 38.9375C112.086 39.3646 112.023 39.8255 111.898 40.3203C111.643 41.3359 111.154 42.3906 110.43 43.4844C110.128 43.9271 109.789 44.3828 109.414 44.8516C109.044 45.3203 108.716 45.7083 108.43 46.0156C108.143 46.3177 107.964 46.4688 107.891 46.4688H107.867C107.779 46.4688 107.609 46.599 107.359 46.8594C107.052 47.1719 106.878 47.3281 106.836 47.3281C106.831 47.3281 106.828 47.3255 106.828 47.3203C106.828 47.2474 107.068 46.9479 107.547 46.4219C107.917 46.026 108.211 45.6823 108.43 45.3906C108.648 45.099 108.758 44.9193 108.758 44.8516C108.758 44.8359 108.753 44.8281 108.742 44.8281C108.701 44.8281 108.539 44.9714 108.258 45.2578C108.164 45.3568 108.109 45.4062 108.094 45.4062L108.086 45.3984C108.086 45.3672 108.229 45.1589 108.516 44.7734C109.479 43.4714 110.125 42.4583 110.453 41.7344C110.594 41.401 110.664 41.2135 110.664 41.1719V41.1641C110.638 41.1641 110.5 41.3932 110.25 41.8516C110.026 42.2786 109.779 42.7109 109.508 43.1484C109.195 43.6172 108.669 44.3021 107.93 45.2031C107.591 45.6146 107.401 45.8203 107.359 45.8203C107.354 45.8203 107.352 45.8177 107.352 45.8125C107.352 45.7865 107.393 45.7161 107.477 45.6016C108.555 44.2005 109.253 43.2318 109.57 42.6953C109.747 42.388 109.914 42.0599 110.07 41.7109C110.247 41.3359 110.375 41.0443 110.453 40.8359C110.531 40.6276 110.578 40.4297 110.594 40.2422C110.615 40.0547 110.625 39.8047 110.625 39.4922C110.625 38.5182 110.516 38.0312 110.297 38.0312C110.26 38.0312 110.219 38.0521 110.172 38.0938C110.125 38.1302 110.083 38.1484 110.047 38.1484C110.01 38.1484 109.977 38.1276 109.945 38.0859C109.919 38.0391 109.88 38.0156 109.828 38.0156C109.807 38.0156 109.786 38.0234 109.766 38.0391C109.745 38.0495 109.721 38.0547 109.695 38.0547C109.638 38.0547 109.576 38.0286 109.508 37.9766C109.445 37.9245 109.372 37.8984 109.289 37.8984C109.206 37.8984 109.091 37.9219 108.945 37.9688C108.523 38.099 108.117 38.2109 107.727 38.3047C106.997 38.4974 106.38 38.7031 105.875 38.9219C105.667 39.0104 105.562 39.0729 105.562 39.1094V39.125C105.562 39.1719 105.273 39.3047 104.695 39.5234C102.049 40.5286 98.9583 41.9219 95.4219 43.7031C91.8906 45.4792 88.9714 47.112 86.6641 48.6016C86.0599 48.987 85.5729 49.2786 85.2031 49.4766C84.3281 49.9349 83.0312 50.7474 81.3125 51.9141C77.5729 54.4557 74.8698 56.5885 73.2031 58.3125C72.3281 59.224 71.8906 59.8464 71.8906 60.1797V60.2031C71.9896 60.5417 72.8542 60.7109 74.4844 60.7109C76.599 60.7109 79.7031 60.4427 83.7969 59.9062L91.4453 58.8906C94.4609 58.4844 97.4036 58.1432 100.273 57.8672C101.352 57.7734 102.555 57.7266 103.883 57.7266C105.57 57.7266 106.812 57.7891 107.609 57.9141C108.573 58.0859 109.326 58.3203 109.867 58.6172C110.544 58.987 111.023 59.5391 111.305 60.2734C111.352 60.4036 111.38 60.5573 111.391 60.7344C111.406 60.9115 111.414 61.1615 111.414 61.4844C111.414 61.8333 111.406 62.099 111.391 62.2812C111.375 62.4635 111.331 62.6432 111.258 62.8203C111.19 62.9974 111.078 63.2396 110.922 63.5469C110.781 63.8229 110.661 64.0495 110.562 64.2266C110.469 64.4036 110.411 64.4922 110.391 64.4922C110.339 64.4922 110.096 64.6953 109.664 65.1016C108.987 65.7266 108.008 66.4193 106.727 67.1797C105.445 67.9349 104.185 68.5677 102.945 69.0781C102.357 69.3177 101.953 69.4922 101.734 69.6016C101.589 69.6849 101.401 69.7578 101.172 69.8203C101.026 69.8568 100.315 70.0964 99.0391 70.5391C97.2318 71.1797 94.5703 71.987 91.0547 72.9609C89.9714 73.2474 88.7031 73.5026 87.25 73.7266C85.7969 73.9505 84.651 74.0651 83.8125 74.0703ZM83.1875 72.0547C83.1927 72.0547 83.1953 72.0521 83.1953 72.0469C83.1953 72.0104 83.1615 71.9349 83.0938 71.8203C83.026 71.7109 82.9714 71.6562 82.9297 71.6562C82.9141 71.6615 82.9062 71.6719 82.9062 71.6875C82.9062 71.724 82.9401 71.7865 83.0078 71.875C83.0859 71.9948 83.1458 72.0547 83.1875 72.0547ZM79.8203 62.4844C80.2266 62.4531 80.7578 62.3958 81.4141 62.3125C82.4922 62.1875 83.0312 62.1068 83.0312 62.0703C83.0312 62.0547 82.9453 62.0469 82.7734 62.0469C82.5182 62.0469 81.9245 62.1042 80.9922 62.2188C80.0651 62.3333 79.5833 62.4062 79.5469 62.4375C79.5365 62.4479 79.5312 62.4557 79.5312 62.4609C79.5312 62.4766 79.5729 62.4844 79.6562 62.4844H79.8203ZM84.5859 61.9141C84.6953 61.9141 84.75 61.9036 84.75 61.8828C84.75 61.8516 84.6953 61.8359 84.5859 61.8359C84.4766 61.8359 84.4219 61.8516 84.4219 61.8828C84.4219 61.9036 84.4766 61.9141 84.5859 61.9141ZM85.1172 61.9219C85.1745 61.9219 85.2578 61.888 85.3672 61.8203C85.4297 61.7839 85.4609 61.7578 85.4609 61.7422C85.4609 61.7214 85.4245 61.7109 85.3516 61.7109C85.138 61.7109 85.0312 61.7474 85.0312 61.8203C85.0312 61.888 85.0599 61.9219 85.1172 61.9219ZM86.2578 61.6953C86.3255 61.6953 86.3594 61.6823 86.3594 61.6562C86.3594 61.625 86.3255 61.6094 86.2578 61.6094C86.2214 61.6094 86.1823 61.6172 86.1406 61.6328C86.1042 61.6484 86.0859 61.6615 86.0859 61.6719C86.0859 61.6875 86.1432 61.6953 86.2578 61.6953ZM94.7422 60.6484C94.7839 60.6484 95.0078 60.6172 95.4141 60.5547C96.0859 60.4609 96.4219 60.4089 96.4219 60.3984C96.4219 60.3932 96.4062 60.3906 96.375 60.3906C96.2812 60.3906 96.0625 60.4036 95.7188 60.4297C95.4479 60.4453 95.2135 60.4688 95.0156 60.5C94.7708 60.5365 94.6484 60.5755 94.6484 60.6172C94.6484 60.638 94.6797 60.6484 94.7422 60.6484ZM97.8125 60.2969C97.875 60.2969 97.9505 60.2917 98.0391 60.2812C98.1745 60.2656 98.4531 60.2396 98.875 60.2031C100.745 60.0417 101.68 59.9505 101.68 59.9297C101.68 59.9245 101.617 59.9219 101.492 59.9219C101.065 59.9219 100.378 59.9609 99.4297 60.0391C98.2734 60.1432 97.6953 60.2214 97.6953 60.2734C97.6953 60.2891 97.7344 60.2969 97.8125 60.2969ZM102.641 59.8828C102.786 59.8828 102.859 59.875 102.859 59.8594C102.859 59.8281 102.784 59.8125 102.633 59.8125C102.586 59.8125 102.542 59.8177 102.5 59.8281C102.464 59.8385 102.445 59.849 102.445 59.8594C102.445 59.8698 102.51 59.8776 102.641 59.8828ZM103.867 59.8984C103.971 59.8984 104.023 59.8854 104.023 59.8594C104.023 59.8281 103.99 59.8099 103.922 59.8047C103.88 59.8047 103.839 59.8125 103.797 59.8281C103.76 59.8438 103.742 59.8568 103.742 59.8672C103.742 59.8828 103.784 59.8932 103.867 59.8984ZM107.906 46.4062C107.938 46.4062 108.076 46.2578 108.32 45.9609C108.523 45.6953 108.625 45.5469 108.625 45.5156L108.617 45.5078C108.581 45.5078 108.443 45.6589 108.203 45.9609C108 46.2161 107.898 46.362 107.898 46.3984L107.906 46.4062ZM91.1641 64.2656C91.1536 64.2656 91.1484 64.263 91.1484 64.2578C91.1484 64.2318 91.2422 64.1823 91.4297 64.1094C91.6172 64.0312 91.7526 63.9922 91.8359 63.9922H91.8516C91.8516 64.0234 91.763 64.0729 91.5859 64.1406C91.3828 64.224 91.2422 64.2656 91.1641 64.2656Z" fill="white"/>
</svg>
